# xmcd
#
# Track frame offsets: 
#        150
#        14660
#        26355
#        39562
#        52711
#        68401
#        79656
#        100025
#        118504
#        133263
#        149044
#        165759
#        178654
#
# Disc length: 2592 seconds
#
# Revision: 0
# Processed by: cddbd v1.5.2PL0 Copyright (c) Steve Scherf et al.
# Submitted via: ExactAudioCopy v0.95a5
#
DISCID=a00a1e0d
DTITLE=Laura Repo and The Blue Healers - A Charmed Life
DYEAR=2004
DGENRE=Country
TTITLE0=Full Moon
TTITLE1=Half the Heartache
TTITLE2=Sorry
TTITLE3=Green Dress
TTITLE4=Get Yourself Home
TTITLE5=The Hat
TTITLE6=Trains Never Stop in Kingston
TTITLE7=Tell Me If
TTITLE8=Greyness
TTITLE9=There is a Light
TTITLE10=City Song
TTITLE11=Where Only the Birds Go
TTITLE12=Foolish Things
EXTD=
EXTT0=
EXTT1=
EXTT2=
EXTT3=
EXTT4=
EXTT5=
EXTT6=
EXTT7=
EXTT8=
EXTT9=
EXTT10=
EXTT11=
EXTT12=
PLAYORDER=
